{"title":"Phas Gaye Re Obema 2010 DVDScr x264 400Mb - Henry ","uid":6015528,"size":421922067,"categoryP":"video","categoryS":"movies","magnet":"?xt=urn:btih:c64294846ed2d08fb73dad24d02a51eab7aade6c&amp;dn=Phas+Gaye+Re+Obema+2010+DVDScr+x264+400Mb+-+Henry+&amp;tr=udp%3A%2F%2Ftracker.openbittorrent.com%3A80&amp;tr=udp%3A%2F%2Fopen.demonii.com%3A1337&amp;tr=udp%3A%2F%2Ftracker.coppersurfer.tk%3A6969&amp;tr=udp%3A%2F%2Fexodus.desync.com%3A6969","seeders":0,"leechers":0,"uploader":"imsingh","files":3,"time":1291625810,"description":"\nEXCLUSIVE DHAMAKA FROM Henry\n\n\n----------------------------------------------------------------------------------\nFormat                           : Matroska\nFile size                        : 398 MiB\nDuration                         : 1h 55mn\nOverall bit rate                 : 483 Kbps\nMovie name                       : Phas Gaye Re Obema 2010 DVDScr x264 - Henry Kharay\nEncoded date                     : UTC 2010-12-05 16:46:37\nWriting application              : mkvmerge v4.2.0 ('No Talking') built on Jul 28 2010 18:38:23\nWriting library                  : libebml v1.0.0 + libmatroska v1.0.0\n-----------------------------------------------------------------------------------\nVideo\nID                               : 1\nFormat                           : AVC\nFormat/Info                      : Advanced Video Codec\nFormat profile                   : &lt;a class=&quot;__cf_email__&quot; href=&quot;/cdn-cgi/l/email-protection&quot; data-cfemail=&quot;450d2c222d0509776b74&quot;&gt;[email&amp;#160;protected]&lt;/a&gt;&lt;script cf-hash='f9e31' type=&quot;text/javascript&quot;&gt;\n/* &lt;![CDATA[ */!function(){try{var t=&quot;currentScript&quot;in document?document.currentScript:function(){for(var t=document.getElementsByTagName(&quot;script&quot;),e=t.length;e--;)if(t[e].getAttribute(&quot;cf-hash&quot;))return t[e]}();if(t&amp;&amp;t.previousSibling){var e,r,n,i,c=t.previousSibling,a=c.getAttribute(&quot;data-cfemail&quot;);if(a){for(e=&quot;&quot;,r=parseInt(a.substr(0,2),16),n=2;a.length-n;n+=2)i=parseInt(a.substr(n,2),16)^r,e+=String.fromCharCode(i);e=document.createTextNode(e),c.parentNode.replaceChild(e,c)}}}catch(u){}}();/* ]]&gt; */&lt;/script&gt;\nFormat settings, CABAC           : Yes\nFormat settings, ReFrames        : 4 frames\nMuxing mode                      : Container profile=&lt;a class=&quot;__cf_email__&quot; href=&quot;/cdn-cgi/l/email-protection&quot; data-cfemail=&quot;4712292c2928302907756976&quot;&gt;[email&amp;#160;protected]&lt;/a&gt;&lt;script cf-hash='f9e31' type=&quot;text/javascript&quot;&gt;\n/* &lt;![CDATA[ */!function(){try{var t=&quot;currentScript&quot;in document?document.currentScript:function(){for(var t=document.getElementsByTagName(&quot;script&quot;),e=t.length;e--;)if(t[e].getAttribute(&quot;cf-hash&quot;))return t[e]}();if(t&amp;&amp;t.previousSibling){var e,r,n,i,c=t.previousSibling,a=c.getAttribute(&quot;data-cfemail&quot;);if(a){for(e=&quot;&quot;,r=parseInt(a.substr(0,2),16),n=2;a.length-n;n+=2)i=parseInt(a.substr(n,2),16)^r,e+=String.fromCharCode(i);e=document.createTextNode(e),c.parentNode.replaceChild(e,c)}}}catch(u){}}();/* ]]&gt; */&lt;/script&gt;\nCodec ID                         : V_MPEG4/ISO/AVC\nDuration                         : 1h 55mn\nBit rate                         : 391 Kbps\nWidth                            : 640 pixels\nHeight                           : 272 pixels\nDisplay aspect ratio             : 2.35:1\nFrame rate                       : 23.976 fps\nColor space                      : YUV\nChroma subsampling               : 4:2:0\nBit depth                        : 8 bits\nScan type                        : Progressive\nBits/(Pixel*Frame)               : 0.094\nStream size                      : 315 MiB (79%)\nWriting library                  : x264 \n-----------------------------------------------------------------------------------\nAudio\nID                               : 2\nFormat                           : MPEG Audio\nFormat version                   : Version 2\nFormat profile                   : Layer 3\nMode                             : Joint stereo\nMode extension                   : MS Stereo\nCodec ID                         : A_MPEG/L3\nCodec ID/Hint                    : MP3\nDuration                         : 1h 55mn\nBit rate mode                    : Variable\nBit rate                         : 90.3 Kbps\nNominal bit rate                 : 128 Kbps\nChannel(s)                       : 2 channels\nSampling rate                    : 24.0 KHz\nStream size                      : 74.4 MiB (19%)\nWriting library                  : LAME3.98r\nEncoding settings                : -m j -V 4 -q 2 -lowpass 12 --abr 128\n\nScreens: &lt;a href=&quot;\nhttp://bapugunda.com/images.php?i=4163_2.png&quot; rel=&quot;nofollow&quot; target=&quot;_NEW&quot;&gt;\nhttp://bapugunda.com/images.php?i=4163_2.png&lt;/a&gt; &lt;a href=&quot;\nhttp://bapugunda.com/images.php?i=4160_5.png&quot; rel=&quot;nofollow&quot; target=&quot;_NEW&quot;&gt;\nhttp://bapugunda.com/images.php?i=4160_5.png&lt;/a&gt; &lt;a href=&quot;\nhttp://bapugunda.com/images.php?i=4158_7.png&quot; rel=&quot;nofollow&quot; target=&quot;_NEW&quot;&gt;\nhttp://bapugunda.com/images.php?i=4158_7.png&lt;/a&gt; &lt;a href=&quot;\nhttp://bapugunda.com/images.php?i=4162_3.png&quot; rel=&quot;nofollow&quot; target=&quot;_NEW&quot;&gt;\nhttp://bapugunda.com/images.php?i=4162_3.png&lt;/a&gt; &lt;a href=&quot;\nhttp://bapugunda.com/images.php?i=4164_1.png&quot; rel=&quot;nofollow&quot; target=&quot;_NEW&quot;&gt;\nhttp://bapugunda.com/images.php?i=4164_1.png&lt;/a&gt; &lt;a href=&quot;\nhttp://bapugunda.com/images.php?i=4161_4.png&quot; rel=&quot;nofollow&quot; target=&quot;_NEW&quot;&gt;\nhttp://bapugunda.com/images.php?i=4161_4.png&lt;/a&gt;\n\nSample Include In Torrent\n\nKeep Seeding\nthnx","torrent":{"xt":"urn:btih:c64294846ed2d08fb73dad24d02a51eab7aade6c","amp;dn":"Phas+Gaye+Re+Obema+2010+DVDScr+x264+400Mb+-+Henry+","amp;tr":["udp%3A%2F%2Ftracker.openbittorrent.com%3A80","udp%3A%2F%2Fopen.demonii.com%3A1337","udp%3A%2F%2Ftracker.coppersurfer.tk%3A6969","udp%3A%2F%2Fexodus.desync.com%3A6969"],"infoHash":"c64294846ed2d08fb73dad24d02a51eab7aade6c","infoHashBuffer":{"type":"Buffer","data":[198,66,148,132,110,210,208,143,183,61,173,36,208,42,81,234,183,170,222,108]},"announce":[],"urlList":[]}}